<?xml version="1.0" standalone="no"?>
<!DOCTYPE svg PUBLIC "-//W3C//DTD SVG 20010904//EN"
 "http://www.w3.org/TR/2001/REC-SVG-20010904/DTD/svg10.dtd">
<svg version="1.0" xmlns="http://www.w3.org/2000/svg"
 width="50.000000pt" height="50.000000pt" viewBox="0 0 50.000000 50.000000"
 preserveAspectRatio="xMidYMid meet">

<g transform="translate(0.000000,50.000000) scale(0.100000,-0.100000)"
fill="#000000" stroke="none">
<path d="M60 288 l0 -175 53 -7 c30 -3 73 -12 95 -20 37 -13 47 -13 84 0 22 8
65 17 95 20 l53 7 0 175 0 175 -52 -6 c-29 -3 -72 -12 -95 -20 -38 -13 -48
-13 -85 0 -24 8 -67 17 -95 20 l-53 6 0 -175z m143 130 l37 -11 0 -155 c0
-134 -2 -153 -15 -148 -9 3 -45 11 -80 18 l-65 11 0 155 0 155 43 -7 c23 -4
59 -12 80 -18z m217 -131 l0 -154 -65 -11 c-35 -7 -71 -15 -80 -18 -13 -5 -15
13 -15 145 0 168 -3 161 77 180 89 21 83 31 83 -142z"/>
<path d="M20 240 l0 -170 38 0 c22 0 73 -9 115 -20 76 -19 78 -19 154 0 42 11
93 20 115 20 l38 0 0 170 c0 107 -4 170 -10 170 -6 0 -10 -60 -10 -159 l0
-158 -60 -7 c-33 -4 -80 -13 -105 -21 -38 -11 -52 -11 -90 0 -25 8 -72 17
-105 21 l-60 7 0 158 c0 99 -4 159 -10 159 -6 0 -10 -63 -10 -170z"/>
</g>
</svg>
