<svg enable-background="new 0 0 512 512" id="Layer_1" version="1.1" width="48" height="48"
                            viewBox="0 0 512 512" xml:space="preserve" xmlns="http://www.w3.org/2000/svg"
                            xmlns:xlink="http://www.w3.org/1999/xlink">
                          <rect width="512" height="512" rx="256" fill="white" fill-opacity="0.6" />

                          <g>
                            <path
                                d="M388.1,143c13.4-1.4,26,9.3,26.9,22.9c0.2,3.6,0,7.3,0,11c-1.2,0-2.1,0.8-3.1,1.5   c-11,7.9-21.9,15.7-32.9,23.6c-36.7,25.2-73.4,50.3-110,75.6c-3.8,2.6-8.1,4.6-11.1,8.3c-1.7,0.3-2.8-0.8-4-1.7   c-29.6-20.6-59.3-41.3-88.9-61.9c-10.1-7-20.1-14-31-21.5c0,2.7,0,4.5,0,6.3c0,28.6,0,57.3,0,85.9c0,25.3,0.1,50.6,0.2,75.9   c0,0.7-0.1,1.4-0.1,2.1c-16.6,3.2-30.7-4.7-34.4-19.4c-0.5-2.1-0.7-4.3-0.7-6.4c0-58.7,0.1-117.5-0.1-176.2   c-0.1-14.9,13.2-28.1,27.1-26c0.5,0.5,0.9,1,1.4,1.4c42.1,31.2,84.2,62.4,126.2,93.6c2.5,1.9,4,1.6,6.3-0.1   c26.2-19.4,52.5-38.7,78.7-58C355.1,167.7,371.6,155.3,388.1,143z" />
                            <path
                                d="M379.1,371c0-56.3,0-112.6-0.1-168.9c11-7.9,21.9-15.7,32.9-23.6c0.9-0.7,1.8-1.5,3.1-1.5   c0.1,18.5,0.2,36.9,0.2,55.4c0,36.1,0,72.2,0,108.3c0,2.5,0,5-0.1,7.5c-0.6,12.4-6.6,19.4-18.6,21.7   C390.7,371,384.9,371.7,379.1,371z" />


                          </g>



                        </svg>